<mxfile host="app.diagrams.net" modified="2023-09-25T16:29:57.643Z" agent="Mozilla/5.0 (Windows NT 10.0; Win64; x64) AppleWebKit/537.36 (KHTML, like Gecko) Chrome/116.0.0.0 Safari/537.36" version="21.6.8" etag="1GZcAVcO3QCapX3m7BmZ" type="device">
  <diagram name="Página-1" id="3oRAbKmRTNMW5dDMv224">
    <mxGraphModel dx="2304" dy="833" grid="1" gridSize="10" guides="1" tooltips="1" connect="1" arrows="1" fold="1" page="1" pageScale="1" pageWidth="827" pageHeight="1169" math="0" shadow="0">
      <root>
        <mxCell id="0" />
        <mxCell id="1" parent="0" />
        <mxCell id="46" value="Modelo Conceitual" style="text;html=1;align=center;verticalAlign=middle;resizable=0;points=[];autosize=1;strokeColor=none;fillColor=none;fontSize=48;" parent="1" vertex="1">
          <mxGeometry x="204" y="199" width="420" height="70" as="geometry" />
        </mxCell>
        <mxCell id="47" value="Modelo Lógico" style="text;html=1;align=center;verticalAlign=middle;resizable=0;points=[];autosize=1;strokeColor=none;fillColor=none;fontSize=48;" parent="1" vertex="1">
          <mxGeometry x="244" y="710" width="340" height="70" as="geometry" />
        </mxCell>
        <mxCell id="48" value="Modelo Físico" style="text;html=1;align=center;verticalAlign=middle;resizable=0;points=[];autosize=1;strokeColor=none;fillColor=none;fontSize=48;" parent="1" vertex="1">
          <mxGeometry x="254" y="1300" width="320" height="70" as="geometry" />
        </mxCell>
        <mxCell id="67" value="Filme" style="whiteSpace=wrap;html=1;align=center;" parent="1" vertex="1">
          <mxGeometry x="203" y="540" width="100" height="40" as="geometry" />
        </mxCell>
        <mxCell id="70" value="" style="edgeStyle=none;html=1;endArrow=none;endFill=0;startArrow=none;" parent="1" source="72" target="69" edge="1">
          <mxGeometry relative="1" as="geometry" />
        </mxCell>
        <mxCell id="68" value="Genero" style="whiteSpace=wrap;html=1;align=center;" parent="1" vertex="1">
          <mxGeometry x="543" y="540" width="100" height="40" as="geometry" />
        </mxCell>
        <mxCell id="71" value="" style="edgeStyle=none;html=1;endArrow=none;endFill=0;startArrow=none;" parent="1" source="74" target="67" edge="1">
          <mxGeometry relative="1" as="geometry" />
        </mxCell>
        <mxCell id="69" value="possui" style="rhombus;whiteSpace=wrap;html=1;" parent="1" vertex="1">
          <mxGeometry x="383" y="520" width="80" height="80" as="geometry" />
        </mxCell>
        <mxCell id="73" value="" style="edgeStyle=none;html=1;endArrow=none;endFill=0;" parent="1" source="68" target="72" edge="1">
          <mxGeometry relative="1" as="geometry">
            <mxPoint x="543" y="560" as="sourcePoint" />
            <mxPoint x="463" y="560" as="targetPoint" />
          </mxGeometry>
        </mxCell>
        <mxCell id="72" value="1" style="text;html=1;align=center;verticalAlign=middle;resizable=0;points=[];autosize=1;strokeColor=none;fillColor=none;" parent="1" vertex="1">
          <mxGeometry x="499" y="545" width="30" height="30" as="geometry" />
        </mxCell>
        <mxCell id="75" value="" style="edgeStyle=none;html=1;endArrow=none;endFill=0;" parent="1" source="69" target="74" edge="1">
          <mxGeometry relative="1" as="geometry">
            <mxPoint x="383" y="560" as="sourcePoint" />
            <mxPoint x="303" y="560" as="targetPoint" />
          </mxGeometry>
        </mxCell>
        <mxCell id="74" value="N" style="text;html=1;align=center;verticalAlign=middle;resizable=0;points=[];autosize=1;strokeColor=none;fillColor=none;rotation=0;" parent="1" vertex="1">
          <mxGeometry x="319" y="545" width="30" height="30" as="geometry" />
        </mxCell>
        <mxCell id="82" style="edgeStyle=none;html=1;endArrow=none;endFill=0;" parent="1" source="81" target="67" edge="1">
          <mxGeometry relative="1" as="geometry" />
        </mxCell>
        <mxCell id="81" value="Nome" style="ellipse;whiteSpace=wrap;html=1;align=center;" parent="1" vertex="1">
          <mxGeometry x="49" y="540" width="100" height="40" as="geometry" />
        </mxCell>
        <mxCell id="86" style="edgeStyle=none;html=1;endArrow=none;endFill=0;" parent="1" source="85" target="68" edge="1">
          <mxGeometry relative="1" as="geometry" />
        </mxCell>
        <mxCell id="85" value="Nome" style="ellipse;whiteSpace=wrap;html=1;align=center;" parent="1" vertex="1">
          <mxGeometry x="679" y="540" width="100" height="40" as="geometry" />
        </mxCell>
        <mxCell id="87" value="Filme" style="shape=table;startSize=30;container=1;collapsible=1;childLayout=tableLayout;fixedRows=1;rowLines=0;fontStyle=1;align=center;resizeLast=1;" parent="1" vertex="1">
          <mxGeometry x="187" y="810" width="180" height="120" as="geometry" />
        </mxCell>
        <mxCell id="88" value="" style="shape=tableRow;horizontal=0;startSize=0;swimlaneHead=0;swimlaneBody=0;fillColor=none;collapsible=0;dropTarget=0;points=[[0,0.5],[1,0.5]];portConstraint=eastwest;top=0;left=0;right=0;bottom=0;" parent="87" vertex="1">
          <mxGeometry y="30" width="180" height="30" as="geometry" />
        </mxCell>
        <mxCell id="89" value="PK" style="shape=partialRectangle;connectable=0;fillColor=#f5f5f5;top=0;left=0;bottom=0;right=0;fontStyle=1;overflow=hidden;fontColor=#333333;strokeColor=#666666;" parent="88" vertex="1">
          <mxGeometry width="60" height="30" as="geometry">
            <mxRectangle width="60" height="30" as="alternateBounds" />
          </mxGeometry>
        </mxCell>
        <mxCell id="90" value="IdFilme" style="shape=partialRectangle;connectable=0;fillColor=#f5f5f5;top=0;left=0;bottom=0;right=0;align=left;spacingLeft=6;fontStyle=5;overflow=hidden;fontColor=#333333;strokeColor=#666666;" parent="88" vertex="1">
          <mxGeometry x="60" width="120" height="30" as="geometry">
            <mxRectangle width="120" height="30" as="alternateBounds" />
          </mxGeometry>
        </mxCell>
        <mxCell id="101" value="" style="shape=tableRow;horizontal=0;startSize=0;swimlaneHead=0;swimlaneBody=0;fillColor=none;collapsible=0;dropTarget=0;points=[[0,0.5],[1,0.5]];portConstraint=eastwest;top=0;left=0;right=0;bottom=0;" parent="87" vertex="1">
          <mxGeometry y="60" width="180" height="30" as="geometry" />
        </mxCell>
        <mxCell id="102" value="FK" style="shape=partialRectangle;connectable=0;fillColor=#f5f5f5;top=0;left=0;bottom=0;right=0;fontStyle=0;overflow=hidden;fontColor=#333333;strokeColor=#666666;" parent="101" vertex="1">
          <mxGeometry width="60" height="30" as="geometry">
            <mxRectangle width="60" height="30" as="alternateBounds" />
          </mxGeometry>
        </mxCell>
        <mxCell id="103" value="Genero" style="shape=partialRectangle;connectable=0;fillColor=#f5f5f5;top=0;left=0;bottom=0;right=0;align=left;spacingLeft=6;fontStyle=0;overflow=hidden;fontColor=#333333;strokeColor=#666666;" parent="101" vertex="1">
          <mxGeometry x="60" width="120" height="30" as="geometry">
            <mxRectangle width="120" height="30" as="alternateBounds" />
          </mxGeometry>
        </mxCell>
        <mxCell id="94" value="" style="shape=tableRow;horizontal=0;startSize=0;swimlaneHead=0;swimlaneBody=0;fillColor=none;collapsible=0;dropTarget=0;points=[[0,0.5],[1,0.5]];portConstraint=eastwest;top=0;left=0;right=0;bottom=0;" parent="87" vertex="1">
          <mxGeometry y="90" width="180" height="30" as="geometry" />
        </mxCell>
        <mxCell id="95" value="" style="shape=partialRectangle;connectable=0;fillColor=#f5f5f5;top=0;left=0;bottom=0;right=0;editable=1;overflow=hidden;fontColor=#333333;strokeColor=#666666;" parent="94" vertex="1">
          <mxGeometry width="60" height="30" as="geometry">
            <mxRectangle width="60" height="30" as="alternateBounds" />
          </mxGeometry>
        </mxCell>
        <mxCell id="96" value="Nome" style="shape=partialRectangle;connectable=0;fillColor=#f5f5f5;top=0;left=0;bottom=0;right=0;align=left;spacingLeft=6;overflow=hidden;fontColor=#333333;strokeColor=#666666;" parent="94" vertex="1">
          <mxGeometry x="60" width="120" height="30" as="geometry">
            <mxRectangle width="120" height="30" as="alternateBounds" />
          </mxGeometry>
        </mxCell>
        <mxCell id="100" value="" style="endArrow=none;html=1;rounded=0;entryX=0.998;entryY=-0.007;entryDx=0;entryDy=0;exitX=0.006;exitY=-0.033;exitDx=0;exitDy=0;exitPerimeter=0;entryPerimeter=0;" parent="87" source="94" target="94" edge="1">
          <mxGeometry relative="1" as="geometry">
            <mxPoint x="10" y="60" as="sourcePoint" />
            <mxPoint x="170" y="60" as="targetPoint" />
          </mxGeometry>
        </mxCell>
        <mxCell id="104" value="Genero" style="shape=table;startSize=30;container=1;collapsible=1;childLayout=tableLayout;fixedRows=1;rowLines=0;fontStyle=1;align=center;resizeLast=1;" parent="1" vertex="1">
          <mxGeometry x="460" y="840" width="180" height="90" as="geometry" />
        </mxCell>
        <mxCell id="105" value="" style="shape=tableRow;horizontal=0;startSize=0;swimlaneHead=0;swimlaneBody=0;fillColor=none;collapsible=0;dropTarget=0;points=[[0,0.5],[1,0.5]];portConstraint=eastwest;top=0;left=0;right=0;bottom=0;" parent="104" vertex="1">
          <mxGeometry y="30" width="180" height="30" as="geometry" />
        </mxCell>
        <mxCell id="106" value="PK" style="shape=partialRectangle;connectable=0;fillColor=#f5f5f5;top=0;left=0;bottom=0;right=0;fontStyle=1;overflow=hidden;fontColor=#333333;strokeColor=#666666;" parent="105" vertex="1">
          <mxGeometry width="60" height="30" as="geometry">
            <mxRectangle width="60" height="30" as="alternateBounds" />
          </mxGeometry>
        </mxCell>
        <mxCell id="107" value="IdGenero" style="shape=partialRectangle;connectable=0;fillColor=#f5f5f5;top=0;left=0;bottom=0;right=0;align=left;spacingLeft=6;fontStyle=5;overflow=hidden;fontColor=#333333;strokeColor=#666666;" parent="105" vertex="1">
          <mxGeometry x="60" width="120" height="30" as="geometry">
            <mxRectangle width="120" height="30" as="alternateBounds" />
          </mxGeometry>
        </mxCell>
        <mxCell id="111" value="" style="shape=tableRow;horizontal=0;startSize=0;swimlaneHead=0;swimlaneBody=0;fillColor=none;collapsible=0;dropTarget=0;points=[[0,0.5],[1,0.5]];portConstraint=eastwest;top=0;left=0;right=0;bottom=0;" parent="104" vertex="1">
          <mxGeometry y="60" width="180" height="30" as="geometry" />
        </mxCell>
        <mxCell id="112" value="" style="shape=partialRectangle;connectable=0;fillColor=#f5f5f5;top=0;left=0;bottom=0;right=0;editable=1;overflow=hidden;fontColor=#333333;strokeColor=#666666;" parent="111" vertex="1">
          <mxGeometry width="60" height="30" as="geometry">
            <mxRectangle width="60" height="30" as="alternateBounds" />
          </mxGeometry>
        </mxCell>
        <mxCell id="113" value="Nome" style="shape=partialRectangle;connectable=0;fillColor=#f5f5f5;top=0;left=0;bottom=0;right=0;align=left;spacingLeft=6;overflow=hidden;fontColor=#333333;strokeColor=#666666;" parent="111" vertex="1">
          <mxGeometry x="60" width="120" height="30" as="geometry">
            <mxRectangle width="120" height="30" as="alternateBounds" />
          </mxGeometry>
        </mxCell>
        <mxCell id="114" value="" style="endArrow=none;html=1;rounded=0;entryX=0.998;entryY=-0.007;entryDx=0;entryDy=0;exitX=0.006;exitY=-0.033;exitDx=0;exitDy=0;exitPerimeter=0;entryPerimeter=0;" parent="104" source="111" target="111" edge="1">
          <mxGeometry relative="1" as="geometry">
            <mxPoint x="10" y="60" as="sourcePoint" />
            <mxPoint x="170" y="60" as="targetPoint" />
          </mxGeometry>
        </mxCell>
        <mxCell id="202" value="Filme" style="shape=table;startSize=30;container=1;collapsible=0;childLayout=tableLayout;fontStyle=1;align=center;shadow=1;labelBackgroundColor=none;" parent="1" vertex="1">
          <mxGeometry x="63" y="1431" width="370" height="200" as="geometry" />
        </mxCell>
        <mxCell id="203" value="" style="shape=tableRow;horizontal=0;startSize=0;swimlaneHead=0;swimlaneBody=0;top=0;left=0;bottom=0;right=0;collapsible=0;dropTarget=0;fillColor=none;points=[[0,0.5],[1,0.5]];portConstraint=eastwest;shadow=1;labelBackgroundColor=none;strokeColor=#050505;fontColor=#000000;" parent="202" vertex="1">
          <mxGeometry y="30" width="370" height="57" as="geometry" />
        </mxCell>
        <mxCell id="204" value="IdFilme" style="shape=partialRectangle;html=1;whiteSpace=wrap;connectable=0;top=0;left=0;bottom=0;right=0;overflow=hidden;shadow=1;labelBackgroundColor=none;" parent="203" vertex="1">
          <mxGeometry width="80" height="57" as="geometry">
            <mxRectangle width="80" height="57" as="alternateBounds" />
          </mxGeometry>
        </mxCell>
        <mxCell id="205" value="IdGenero" style="shape=partialRectangle;html=1;whiteSpace=wrap;connectable=0;top=0;left=0;bottom=0;right=0;overflow=hidden;shadow=1;labelBackgroundColor=none;" parent="203" vertex="1">
          <mxGeometry x="80" width="70" height="57" as="geometry">
            <mxRectangle width="70" height="57" as="alternateBounds" />
          </mxGeometry>
        </mxCell>
        <mxCell id="215" value="Nome" style="shape=partialRectangle;html=1;whiteSpace=wrap;connectable=0;top=0;left=0;bottom=0;right=0;overflow=hidden;shadow=1;labelBackgroundColor=none;" parent="203" vertex="1">
          <mxGeometry x="150" width="220" height="57" as="geometry">
            <mxRectangle width="220" height="57" as="alternateBounds" />
          </mxGeometry>
        </mxCell>
        <mxCell id="207" value="" style="shape=tableRow;horizontal=0;startSize=0;swimlaneHead=0;swimlaneBody=0;top=0;left=0;bottom=0;right=0;collapsible=0;dropTarget=0;fillColor=none;points=[[0,0.5],[1,0.5]];portConstraint=eastwest;shadow=1;labelBackgroundColor=none;strokeColor=#050505;fontColor=#000000;" parent="202" vertex="1">
          <mxGeometry y="87" width="370" height="56" as="geometry" />
        </mxCell>
        <mxCell id="208" value="1" style="shape=partialRectangle;html=1;whiteSpace=wrap;connectable=0;top=0;left=0;bottom=0;right=0;overflow=hidden;shadow=1;labelBackgroundColor=none;fillColor=#eeeeee;strokeColor=#36393d;fontColor=#252323;" parent="207" vertex="1">
          <mxGeometry width="80" height="56" as="geometry">
            <mxRectangle width="80" height="56" as="alternateBounds" />
          </mxGeometry>
        </mxCell>
        <mxCell id="209" value="2" style="shape=partialRectangle;html=1;whiteSpace=wrap;connectable=0;top=0;left=0;bottom=0;right=0;overflow=hidden;shadow=1;labelBackgroundColor=none;fillColor=#eeeeee;strokeColor=#36393d;fontColor=#252323;" parent="207" vertex="1">
          <mxGeometry x="80" width="70" height="56" as="geometry">
            <mxRectangle width="70" height="56" as="alternateBounds" />
          </mxGeometry>
        </mxCell>
        <mxCell id="216" value="Os Trapalhões" style="shape=partialRectangle;html=1;whiteSpace=wrap;connectable=0;top=0;left=0;bottom=0;right=0;overflow=hidden;shadow=1;labelBackgroundColor=none;fillColor=#eeeeee;strokeColor=#36393d;fontColor=#252323;" parent="207" vertex="1">
          <mxGeometry x="150" width="220" height="56" as="geometry">
            <mxRectangle width="220" height="56" as="alternateBounds" />
          </mxGeometry>
        </mxCell>
        <mxCell id="211" value="" style="shape=tableRow;horizontal=0;startSize=0;swimlaneHead=0;swimlaneBody=0;top=0;left=0;bottom=0;right=0;collapsible=0;dropTarget=0;fillColor=none;points=[[0,0.5],[1,0.5]];portConstraint=eastwest;shadow=1;labelBackgroundColor=none;strokeColor=#050505;fontColor=#000000;" parent="202" vertex="1">
          <mxGeometry y="143" width="370" height="57" as="geometry" />
        </mxCell>
        <mxCell id="212" value="2" style="shape=partialRectangle;html=1;whiteSpace=wrap;connectable=0;top=0;left=0;bottom=0;right=0;overflow=hidden;shadow=1;labelBackgroundColor=none;fillColor=#eeeeee;strokeColor=#36393d;fontColor=#252323;" parent="211" vertex="1">
          <mxGeometry width="80" height="57" as="geometry">
            <mxRectangle width="80" height="57" as="alternateBounds" />
          </mxGeometry>
        </mxCell>
        <mxCell id="213" value="1" style="shape=partialRectangle;html=1;whiteSpace=wrap;connectable=0;top=0;left=0;bottom=0;right=0;overflow=hidden;shadow=1;labelBackgroundColor=none;fillColor=#eeeeee;strokeColor=#36393d;fontColor=#252323;" parent="211" vertex="1">
          <mxGeometry x="80" width="70" height="57" as="geometry">
            <mxRectangle width="70" height="57" as="alternateBounds" />
          </mxGeometry>
        </mxCell>
        <mxCell id="217" value="Turma da Monica" style="shape=partialRectangle;html=1;whiteSpace=wrap;connectable=0;top=0;left=0;bottom=0;right=0;overflow=hidden;shadow=1;labelBackgroundColor=none;fillColor=#eeeeee;strokeColor=#36393d;fontColor=#252323;" parent="211" vertex="1">
          <mxGeometry x="150" width="220" height="57" as="geometry">
            <mxRectangle width="220" height="57" as="alternateBounds" />
          </mxGeometry>
        </mxCell>
        <mxCell id="218" value="Genero" style="shape=table;startSize=30;container=1;collapsible=0;childLayout=tableLayout;fontStyle=1;align=center;shadow=1;labelBackgroundColor=none;" parent="1" vertex="1">
          <mxGeometry x="464" y="1431" width="300" height="200" as="geometry" />
        </mxCell>
        <mxCell id="219" value="" style="shape=tableRow;horizontal=0;startSize=0;swimlaneHead=0;swimlaneBody=0;top=0;left=0;bottom=0;right=0;collapsible=0;dropTarget=0;fillColor=none;points=[[0,0.5],[1,0.5]];portConstraint=eastwest;shadow=1;labelBackgroundColor=none;strokeColor=#050505;fontColor=#000000;" parent="218" vertex="1">
          <mxGeometry y="30" width="300" height="57" as="geometry" />
        </mxCell>
        <mxCell id="220" value="IdGenero" style="shape=partialRectangle;html=1;whiteSpace=wrap;connectable=0;top=0;left=0;bottom=0;right=0;overflow=hidden;shadow=1;labelBackgroundColor=none;" parent="219" vertex="1">
          <mxGeometry width="80" height="57" as="geometry">
            <mxRectangle width="80" height="57" as="alternateBounds" />
          </mxGeometry>
        </mxCell>
        <mxCell id="222" value="Nome" style="shape=partialRectangle;html=1;whiteSpace=wrap;connectable=0;top=0;left=0;bottom=0;right=0;overflow=hidden;shadow=1;labelBackgroundColor=none;" parent="219" vertex="1">
          <mxGeometry x="80" width="220" height="57" as="geometry">
            <mxRectangle width="220" height="57" as="alternateBounds" />
          </mxGeometry>
        </mxCell>
        <mxCell id="227" value="" style="shape=tableRow;horizontal=0;startSize=0;swimlaneHead=0;swimlaneBody=0;top=0;left=0;bottom=0;right=0;collapsible=0;dropTarget=0;fillColor=none;points=[[0,0.5],[1,0.5]];portConstraint=eastwest;shadow=1;labelBackgroundColor=none;strokeColor=#050505;fontColor=#000000;" parent="218" vertex="1">
          <mxGeometry y="87" width="300" height="57" as="geometry" />
        </mxCell>
        <mxCell id="228" value="1" style="shape=partialRectangle;html=1;whiteSpace=wrap;connectable=0;top=0;left=0;bottom=0;right=0;overflow=hidden;shadow=1;labelBackgroundColor=none;fillColor=#eeeeee;strokeColor=#36393d;fontColor=#252323;" parent="227" vertex="1">
          <mxGeometry width="80" height="57" as="geometry">
            <mxRectangle width="80" height="57" as="alternateBounds" />
          </mxGeometry>
        </mxCell>
        <mxCell id="230" value="Desenho" style="shape=partialRectangle;html=1;whiteSpace=wrap;connectable=0;top=0;left=0;bottom=0;right=0;overflow=hidden;shadow=1;labelBackgroundColor=none;fillColor=#eeeeee;strokeColor=#36393d;fontColor=#252323;" parent="227" vertex="1">
          <mxGeometry x="80" width="220" height="57" as="geometry">
            <mxRectangle width="220" height="57" as="alternateBounds" />
          </mxGeometry>
        </mxCell>
        <mxCell id="223" value="" style="shape=tableRow;horizontal=0;startSize=0;swimlaneHead=0;swimlaneBody=0;top=0;left=0;bottom=0;right=0;collapsible=0;dropTarget=0;fillColor=none;points=[[0,0.5],[1,0.5]];portConstraint=eastwest;shadow=1;labelBackgroundColor=none;strokeColor=#050505;fontColor=#000000;" parent="218" vertex="1">
          <mxGeometry y="144" width="300" height="56" as="geometry" />
        </mxCell>
        <mxCell id="224" value="2" style="shape=partialRectangle;html=1;whiteSpace=wrap;connectable=0;top=0;left=0;bottom=0;right=0;overflow=hidden;shadow=1;labelBackgroundColor=none;fillColor=#eeeeee;strokeColor=#36393d;fontColor=#252323;" parent="223" vertex="1">
          <mxGeometry width="80" height="56" as="geometry">
            <mxRectangle width="80" height="56" as="alternateBounds" />
          </mxGeometry>
        </mxCell>
        <mxCell id="226" value="Comédia" style="shape=partialRectangle;html=1;whiteSpace=wrap;connectable=0;top=0;left=0;bottom=0;right=0;overflow=hidden;shadow=1;labelBackgroundColor=none;fillColor=#eeeeee;strokeColor=#36393d;fontColor=#252323;" parent="223" vertex="1">
          <mxGeometry x="80" width="220" height="56" as="geometry">
            <mxRectangle width="220" height="56" as="alternateBounds" />
          </mxGeometry>
        </mxCell>
        <mxCell id="233" value="" style="edgeStyle=entityRelationEdgeStyle;fontSize=12;html=1;endArrow=ERoneToMany;" parent="1" source="105" target="101" edge="1">
          <mxGeometry width="100" height="100" relative="1" as="geometry">
            <mxPoint x="497" y="926" as="sourcePoint" />
            <mxPoint x="597" y="826" as="targetPoint" />
          </mxGeometry>
        </mxCell>
        <mxCell id="_4mBg54PYkMinI__bZJM-242" style="edgeStyle=orthogonalEdgeStyle;rounded=0;orthogonalLoop=1;jettySize=auto;html=1;endArrow=none;endFill=0;" edge="1" parent="1" source="_4mBg54PYkMinI__bZJM-233" target="_4mBg54PYkMinI__bZJM-240">
          <mxGeometry relative="1" as="geometry" />
        </mxCell>
        <mxCell id="_4mBg54PYkMinI__bZJM-244" value="N" style="edgeLabel;html=1;align=center;verticalAlign=middle;resizable=0;points=[];" vertex="1" connectable="0" parent="_4mBg54PYkMinI__bZJM-242">
          <mxGeometry x="-0.0344" relative="1" as="geometry">
            <mxPoint as="offset" />
          </mxGeometry>
        </mxCell>
        <mxCell id="_4mBg54PYkMinI__bZJM-233" value="Usuario" style="whiteSpace=wrap;html=1;align=center;" vertex="1" parent="1">
          <mxGeometry x="187" y="410" width="100" height="40" as="geometry" />
        </mxCell>
        <mxCell id="_4mBg54PYkMinI__bZJM-241" style="edgeStyle=orthogonalEdgeStyle;rounded=0;orthogonalLoop=1;jettySize=auto;html=1;endArrow=none;endFill=0;" edge="1" parent="1" source="_4mBg54PYkMinI__bZJM-234" target="_4mBg54PYkMinI__bZJM-240">
          <mxGeometry relative="1" as="geometry" />
        </mxCell>
        <mxCell id="_4mBg54PYkMinI__bZJM-245" value="1" style="edgeLabel;html=1;align=center;verticalAlign=middle;resizable=0;points=[];" vertex="1" connectable="0" parent="_4mBg54PYkMinI__bZJM-241">
          <mxGeometry x="-0.0941" relative="1" as="geometry">
            <mxPoint as="offset" />
          </mxGeometry>
        </mxCell>
        <mxCell id="_4mBg54PYkMinI__bZJM-234" value="Acesso" style="whiteSpace=wrap;html=1;align=center;" vertex="1" parent="1">
          <mxGeometry x="550" y="410" width="100" height="40" as="geometry" />
        </mxCell>
        <mxCell id="_4mBg54PYkMinI__bZJM-238" style="edgeStyle=orthogonalEdgeStyle;rounded=0;orthogonalLoop=1;jettySize=auto;html=1;endArrow=none;endFill=0;" edge="1" parent="1" source="_4mBg54PYkMinI__bZJM-235" target="_4mBg54PYkMinI__bZJM-233">
          <mxGeometry relative="1" as="geometry" />
        </mxCell>
        <mxCell id="_4mBg54PYkMinI__bZJM-235" value="Email" style="ellipse;whiteSpace=wrap;html=1;align=center;" vertex="1" parent="1">
          <mxGeometry x="54" y="350" width="100" height="40" as="geometry" />
        </mxCell>
        <mxCell id="_4mBg54PYkMinI__bZJM-239" style="edgeStyle=orthogonalEdgeStyle;rounded=0;orthogonalLoop=1;jettySize=auto;html=1;endArrow=none;endFill=0;" edge="1" parent="1" source="_4mBg54PYkMinI__bZJM-236" target="_4mBg54PYkMinI__bZJM-233">
          <mxGeometry relative="1" as="geometry" />
        </mxCell>
        <mxCell id="_4mBg54PYkMinI__bZJM-236" value="Senha" style="ellipse;whiteSpace=wrap;html=1;align=center;" vertex="1" parent="1">
          <mxGeometry x="54" y="410" width="100" height="40" as="geometry" />
        </mxCell>
        <mxCell id="_4mBg54PYkMinI__bZJM-240" value="Possui" style="shape=rhombus;perimeter=rhombusPerimeter;whiteSpace=wrap;html=1;align=center;" vertex="1" parent="1">
          <mxGeometry x="363" y="400" width="120" height="60" as="geometry" />
        </mxCell>
        <mxCell id="_4mBg54PYkMinI__bZJM-246" value="Usuario" style="shape=table;startSize=30;container=1;collapsible=1;childLayout=tableLayout;fixedRows=1;rowLines=0;fontStyle=1;align=center;resizeLast=1;" vertex="1" parent="1">
          <mxGeometry x="187" y="1010" width="180" height="150" as="geometry" />
        </mxCell>
        <mxCell id="_4mBg54PYkMinI__bZJM-247" value="" style="shape=tableRow;horizontal=0;startSize=0;swimlaneHead=0;swimlaneBody=0;fillColor=none;collapsible=0;dropTarget=0;points=[[0,0.5],[1,0.5]];portConstraint=eastwest;top=0;left=0;right=0;bottom=0;" vertex="1" parent="_4mBg54PYkMinI__bZJM-246">
          <mxGeometry y="30" width="180" height="30" as="geometry" />
        </mxCell>
        <mxCell id="_4mBg54PYkMinI__bZJM-248" value="PK" style="shape=partialRectangle;connectable=0;fillColor=#f5f5f5;top=0;left=0;bottom=0;right=0;fontStyle=1;overflow=hidden;fontColor=#333333;strokeColor=#666666;" vertex="1" parent="_4mBg54PYkMinI__bZJM-247">
          <mxGeometry width="60" height="30" as="geometry">
            <mxRectangle width="60" height="30" as="alternateBounds" />
          </mxGeometry>
        </mxCell>
        <mxCell id="_4mBg54PYkMinI__bZJM-249" value="IdUsuario" style="shape=partialRectangle;connectable=0;fillColor=#f5f5f5;top=0;left=0;bottom=0;right=0;align=left;spacingLeft=6;fontStyle=5;overflow=hidden;fontColor=#333333;strokeColor=#666666;" vertex="1" parent="_4mBg54PYkMinI__bZJM-247">
          <mxGeometry x="60" width="120" height="30" as="geometry">
            <mxRectangle width="120" height="30" as="alternateBounds" />
          </mxGeometry>
        </mxCell>
        <mxCell id="_4mBg54PYkMinI__bZJM-250" value="" style="shape=tableRow;horizontal=0;startSize=0;swimlaneHead=0;swimlaneBody=0;fillColor=none;collapsible=0;dropTarget=0;points=[[0,0.5],[1,0.5]];portConstraint=eastwest;top=0;left=0;right=0;bottom=0;" vertex="1" parent="_4mBg54PYkMinI__bZJM-246">
          <mxGeometry y="60" width="180" height="30" as="geometry" />
        </mxCell>
        <mxCell id="_4mBg54PYkMinI__bZJM-251" value="FK" style="shape=partialRectangle;connectable=0;fillColor=#f5f5f5;top=0;left=0;bottom=0;right=0;fontStyle=0;overflow=hidden;fontColor=#333333;strokeColor=#666666;" vertex="1" parent="_4mBg54PYkMinI__bZJM-250">
          <mxGeometry width="60" height="30" as="geometry">
            <mxRectangle width="60" height="30" as="alternateBounds" />
          </mxGeometry>
        </mxCell>
        <mxCell id="_4mBg54PYkMinI__bZJM-252" value="IdAcesso" style="shape=partialRectangle;connectable=0;fillColor=#f5f5f5;top=0;left=0;bottom=0;right=0;align=left;spacingLeft=6;fontStyle=0;overflow=hidden;fontColor=#333333;strokeColor=#666666;" vertex="1" parent="_4mBg54PYkMinI__bZJM-250">
          <mxGeometry x="60" width="120" height="30" as="geometry">
            <mxRectangle width="120" height="30" as="alternateBounds" />
          </mxGeometry>
        </mxCell>
        <mxCell id="_4mBg54PYkMinI__bZJM-253" value="" style="shape=tableRow;horizontal=0;startSize=0;swimlaneHead=0;swimlaneBody=0;fillColor=none;collapsible=0;dropTarget=0;points=[[0,0.5],[1,0.5]];portConstraint=eastwest;top=0;left=0;right=0;bottom=0;" vertex="1" parent="_4mBg54PYkMinI__bZJM-246">
          <mxGeometry y="90" width="180" height="30" as="geometry" />
        </mxCell>
        <mxCell id="_4mBg54PYkMinI__bZJM-254" value="" style="shape=partialRectangle;connectable=0;fillColor=#f5f5f5;top=0;left=0;bottom=0;right=0;editable=1;overflow=hidden;fontColor=#333333;strokeColor=#666666;" vertex="1" parent="_4mBg54PYkMinI__bZJM-253">
          <mxGeometry width="60" height="30" as="geometry">
            <mxRectangle width="60" height="30" as="alternateBounds" />
          </mxGeometry>
        </mxCell>
        <mxCell id="_4mBg54PYkMinI__bZJM-255" value="Email" style="shape=partialRectangle;connectable=0;fillColor=#f5f5f5;top=0;left=0;bottom=0;right=0;align=left;spacingLeft=6;overflow=hidden;fontColor=#333333;strokeColor=#666666;" vertex="1" parent="_4mBg54PYkMinI__bZJM-253">
          <mxGeometry x="60" width="120" height="30" as="geometry">
            <mxRectangle width="120" height="30" as="alternateBounds" />
          </mxGeometry>
        </mxCell>
        <mxCell id="_4mBg54PYkMinI__bZJM-289" style="shape=tableRow;horizontal=0;startSize=0;swimlaneHead=0;swimlaneBody=0;fillColor=none;collapsible=0;dropTarget=0;points=[[0,0.5],[1,0.5]];portConstraint=eastwest;top=0;left=0;right=0;bottom=0;" vertex="1" parent="_4mBg54PYkMinI__bZJM-246">
          <mxGeometry y="120" width="180" height="30" as="geometry" />
        </mxCell>
        <mxCell id="_4mBg54PYkMinI__bZJM-290" style="shape=partialRectangle;connectable=0;fillColor=#f5f5f5;top=0;left=0;bottom=0;right=0;editable=1;overflow=hidden;fontColor=#333333;strokeColor=#666666;" vertex="1" parent="_4mBg54PYkMinI__bZJM-289">
          <mxGeometry width="60" height="30" as="geometry">
            <mxRectangle width="60" height="30" as="alternateBounds" />
          </mxGeometry>
        </mxCell>
        <mxCell id="_4mBg54PYkMinI__bZJM-291" value="Senha" style="shape=partialRectangle;connectable=0;fillColor=#f5f5f5;top=0;left=0;bottom=0;right=0;align=left;spacingLeft=6;overflow=hidden;fontColor=#333333;strokeColor=#666666;" vertex="1" parent="_4mBg54PYkMinI__bZJM-289">
          <mxGeometry x="60" width="120" height="30" as="geometry">
            <mxRectangle width="120" height="30" as="alternateBounds" />
          </mxGeometry>
        </mxCell>
        <mxCell id="_4mBg54PYkMinI__bZJM-256" value="" style="endArrow=none;html=1;rounded=0;entryX=0.998;entryY=-0.007;entryDx=0;entryDy=0;exitX=0.006;exitY=-0.033;exitDx=0;exitDy=0;exitPerimeter=0;entryPerimeter=0;" edge="1" parent="_4mBg54PYkMinI__bZJM-246" source="_4mBg54PYkMinI__bZJM-253" target="_4mBg54PYkMinI__bZJM-253">
          <mxGeometry relative="1" as="geometry">
            <mxPoint x="10" y="60" as="sourcePoint" />
            <mxPoint x="170" y="60" as="targetPoint" />
          </mxGeometry>
        </mxCell>
        <mxCell id="_4mBg54PYkMinI__bZJM-257" value="Acesso" style="shape=table;startSize=30;container=1;collapsible=1;childLayout=tableLayout;fixedRows=1;rowLines=0;fontStyle=1;align=center;resizeLast=1;" vertex="1" parent="1">
          <mxGeometry x="460" y="1040" width="180" height="90" as="geometry" />
        </mxCell>
        <mxCell id="_4mBg54PYkMinI__bZJM-258" value="" style="shape=tableRow;horizontal=0;startSize=0;swimlaneHead=0;swimlaneBody=0;fillColor=none;collapsible=0;dropTarget=0;points=[[0,0.5],[1,0.5]];portConstraint=eastwest;top=0;left=0;right=0;bottom=0;" vertex="1" parent="_4mBg54PYkMinI__bZJM-257">
          <mxGeometry y="30" width="180" height="30" as="geometry" />
        </mxCell>
        <mxCell id="_4mBg54PYkMinI__bZJM-259" value="PK" style="shape=partialRectangle;connectable=0;fillColor=#f5f5f5;top=0;left=0;bottom=0;right=0;fontStyle=1;overflow=hidden;fontColor=#333333;strokeColor=#666666;" vertex="1" parent="_4mBg54PYkMinI__bZJM-258">
          <mxGeometry width="60" height="30" as="geometry">
            <mxRectangle width="60" height="30" as="alternateBounds" />
          </mxGeometry>
        </mxCell>
        <mxCell id="_4mBg54PYkMinI__bZJM-260" value="IdAcesso" style="shape=partialRectangle;connectable=0;fillColor=#f5f5f5;top=0;left=0;bottom=0;right=0;align=left;spacingLeft=6;fontStyle=5;overflow=hidden;fontColor=#333333;strokeColor=#666666;" vertex="1" parent="_4mBg54PYkMinI__bZJM-258">
          <mxGeometry x="60" width="120" height="30" as="geometry">
            <mxRectangle width="120" height="30" as="alternateBounds" />
          </mxGeometry>
        </mxCell>
        <mxCell id="_4mBg54PYkMinI__bZJM-261" value="" style="shape=tableRow;horizontal=0;startSize=0;swimlaneHead=0;swimlaneBody=0;fillColor=none;collapsible=0;dropTarget=0;points=[[0,0.5],[1,0.5]];portConstraint=eastwest;top=0;left=0;right=0;bottom=0;" vertex="1" parent="_4mBg54PYkMinI__bZJM-257">
          <mxGeometry y="60" width="180" height="30" as="geometry" />
        </mxCell>
        <mxCell id="_4mBg54PYkMinI__bZJM-262" value="" style="shape=partialRectangle;connectable=0;fillColor=#f5f5f5;top=0;left=0;bottom=0;right=0;editable=1;overflow=hidden;fontColor=#333333;strokeColor=#666666;" vertex="1" parent="_4mBg54PYkMinI__bZJM-261">
          <mxGeometry width="60" height="30" as="geometry">
            <mxRectangle width="60" height="30" as="alternateBounds" />
          </mxGeometry>
        </mxCell>
        <mxCell id="_4mBg54PYkMinI__bZJM-263" value="Acesso" style="shape=partialRectangle;connectable=0;fillColor=#f5f5f5;top=0;left=0;bottom=0;right=0;align=left;spacingLeft=6;overflow=hidden;fontColor=#333333;strokeColor=#666666;" vertex="1" parent="_4mBg54PYkMinI__bZJM-261">
          <mxGeometry x="60" width="120" height="30" as="geometry">
            <mxRectangle width="120" height="30" as="alternateBounds" />
          </mxGeometry>
        </mxCell>
        <mxCell id="_4mBg54PYkMinI__bZJM-264" value="" style="endArrow=none;html=1;rounded=0;entryX=0.998;entryY=-0.007;entryDx=0;entryDy=0;exitX=0.006;exitY=-0.033;exitDx=0;exitDy=0;exitPerimeter=0;entryPerimeter=0;" edge="1" parent="_4mBg54PYkMinI__bZJM-257" source="_4mBg54PYkMinI__bZJM-261" target="_4mBg54PYkMinI__bZJM-261">
          <mxGeometry relative="1" as="geometry">
            <mxPoint x="10" y="60" as="sourcePoint" />
            <mxPoint x="170" y="60" as="targetPoint" />
          </mxGeometry>
        </mxCell>
        <mxCell id="_4mBg54PYkMinI__bZJM-292" value="" style="edgeStyle=entityRelationEdgeStyle;fontSize=12;html=1;endArrow=ERoneToMany;rounded=0;" edge="1" parent="1" source="_4mBg54PYkMinI__bZJM-258" target="_4mBg54PYkMinI__bZJM-250">
          <mxGeometry width="100" height="100" relative="1" as="geometry">
            <mxPoint x="356" y="1230" as="sourcePoint" />
            <mxPoint x="456" y="1130" as="targetPoint" />
          </mxGeometry>
        </mxCell>
        <mxCell id="_4mBg54PYkMinI__bZJM-293" value="Acesso" style="shape=table;startSize=30;container=1;collapsible=0;childLayout=tableLayout;fontStyle=1;align=center;shadow=1;labelBackgroundColor=none;" vertex="1" parent="1">
          <mxGeometry x="518" y="1690" width="208" height="200" as="geometry" />
        </mxCell>
        <mxCell id="_4mBg54PYkMinI__bZJM-294" value="" style="shape=tableRow;horizontal=0;startSize=0;swimlaneHead=0;swimlaneBody=0;top=0;left=0;bottom=0;right=0;collapsible=0;dropTarget=0;fillColor=none;points=[[0,0.5],[1,0.5]];portConstraint=eastwest;shadow=1;labelBackgroundColor=none;strokeColor=#050505;fontColor=#000000;" vertex="1" parent="_4mBg54PYkMinI__bZJM-293">
          <mxGeometry y="30" width="208" height="57" as="geometry" />
        </mxCell>
        <mxCell id="_4mBg54PYkMinI__bZJM-295" value="IdAcesso" style="shape=partialRectangle;html=1;whiteSpace=wrap;connectable=0;top=0;left=0;bottom=0;right=0;overflow=hidden;shadow=1;labelBackgroundColor=none;" vertex="1" parent="_4mBg54PYkMinI__bZJM-294">
          <mxGeometry width="80" height="57" as="geometry">
            <mxRectangle width="80" height="57" as="alternateBounds" />
          </mxGeometry>
        </mxCell>
        <mxCell id="_4mBg54PYkMinI__bZJM-296" value="Acesso" style="shape=partialRectangle;html=1;whiteSpace=wrap;connectable=0;top=0;left=0;bottom=0;right=0;overflow=hidden;shadow=1;labelBackgroundColor=none;" vertex="1" parent="_4mBg54PYkMinI__bZJM-294">
          <mxGeometry x="80" width="128" height="57" as="geometry">
            <mxRectangle width="128" height="57" as="alternateBounds" />
          </mxGeometry>
        </mxCell>
        <mxCell id="_4mBg54PYkMinI__bZJM-297" value="" style="shape=tableRow;horizontal=0;startSize=0;swimlaneHead=0;swimlaneBody=0;top=0;left=0;bottom=0;right=0;collapsible=0;dropTarget=0;fillColor=none;points=[[0,0.5],[1,0.5]];portConstraint=eastwest;shadow=1;labelBackgroundColor=none;strokeColor=#050505;fontColor=#000000;" vertex="1" parent="_4mBg54PYkMinI__bZJM-293">
          <mxGeometry y="87" width="208" height="57" as="geometry" />
        </mxCell>
        <mxCell id="_4mBg54PYkMinI__bZJM-298" value="1" style="shape=partialRectangle;html=1;whiteSpace=wrap;connectable=0;top=0;left=0;bottom=0;right=0;overflow=hidden;shadow=1;labelBackgroundColor=none;fillColor=#eeeeee;strokeColor=#36393d;fontColor=#252323;" vertex="1" parent="_4mBg54PYkMinI__bZJM-297">
          <mxGeometry width="80" height="57" as="geometry">
            <mxRectangle width="80" height="57" as="alternateBounds" />
          </mxGeometry>
        </mxCell>
        <mxCell id="_4mBg54PYkMinI__bZJM-299" value="Administrador" style="shape=partialRectangle;html=1;whiteSpace=wrap;connectable=0;top=0;left=0;bottom=0;right=0;overflow=hidden;shadow=1;labelBackgroundColor=none;fillColor=#eeeeee;strokeColor=#36393d;fontColor=#252323;" vertex="1" parent="_4mBg54PYkMinI__bZJM-297">
          <mxGeometry x="80" width="128" height="57" as="geometry">
            <mxRectangle width="128" height="57" as="alternateBounds" />
          </mxGeometry>
        </mxCell>
        <mxCell id="_4mBg54PYkMinI__bZJM-300" value="" style="shape=tableRow;horizontal=0;startSize=0;swimlaneHead=0;swimlaneBody=0;top=0;left=0;bottom=0;right=0;collapsible=0;dropTarget=0;fillColor=none;points=[[0,0.5],[1,0.5]];portConstraint=eastwest;shadow=1;labelBackgroundColor=none;strokeColor=#050505;fontColor=#000000;" vertex="1" parent="_4mBg54PYkMinI__bZJM-293">
          <mxGeometry y="144" width="208" height="56" as="geometry" />
        </mxCell>
        <mxCell id="_4mBg54PYkMinI__bZJM-301" value="2" style="shape=partialRectangle;html=1;whiteSpace=wrap;connectable=0;top=0;left=0;bottom=0;right=0;overflow=hidden;shadow=1;labelBackgroundColor=none;fillColor=#eeeeee;strokeColor=#36393d;fontColor=#252323;" vertex="1" parent="_4mBg54PYkMinI__bZJM-300">
          <mxGeometry width="80" height="56" as="geometry">
            <mxRectangle width="80" height="56" as="alternateBounds" />
          </mxGeometry>
        </mxCell>
        <mxCell id="_4mBg54PYkMinI__bZJM-302" value="Comum" style="shape=partialRectangle;html=1;whiteSpace=wrap;connectable=0;top=0;left=0;bottom=0;right=0;overflow=hidden;shadow=1;labelBackgroundColor=none;fillColor=#eeeeee;strokeColor=#36393d;fontColor=#252323;" vertex="1" parent="_4mBg54PYkMinI__bZJM-300">
          <mxGeometry x="80" width="128" height="56" as="geometry">
            <mxRectangle width="128" height="56" as="alternateBounds" />
          </mxGeometry>
        </mxCell>
        <mxCell id="_4mBg54PYkMinI__bZJM-303" value="Usuario" style="shape=table;startSize=30;container=1;collapsible=0;childLayout=tableLayout;fontStyle=1;align=center;shadow=1;labelBackgroundColor=none;" vertex="1" parent="1">
          <mxGeometry x="101" y="1690" width="395" height="200" as="geometry" />
        </mxCell>
        <mxCell id="_4mBg54PYkMinI__bZJM-304" value="" style="shape=tableRow;horizontal=0;startSize=0;swimlaneHead=0;swimlaneBody=0;top=0;left=0;bottom=0;right=0;collapsible=0;dropTarget=0;fillColor=none;points=[[0,0.5],[1,0.5]];portConstraint=eastwest;shadow=1;labelBackgroundColor=none;strokeColor=#050505;fontColor=#000000;" vertex="1" parent="_4mBg54PYkMinI__bZJM-303">
          <mxGeometry y="30" width="395" height="57" as="geometry" />
        </mxCell>
        <mxCell id="_4mBg54PYkMinI__bZJM-305" value="IdUsuario" style="shape=partialRectangle;html=1;whiteSpace=wrap;connectable=0;top=0;left=0;bottom=0;right=0;overflow=hidden;shadow=1;labelBackgroundColor=none;" vertex="1" parent="_4mBg54PYkMinI__bZJM-304">
          <mxGeometry width="80" height="57" as="geometry">
            <mxRectangle width="80" height="57" as="alternateBounds" />
          </mxGeometry>
        </mxCell>
        <mxCell id="_4mBg54PYkMinI__bZJM-306" value="IdAcesso" style="shape=partialRectangle;html=1;whiteSpace=wrap;connectable=0;top=0;left=0;bottom=0;right=0;overflow=hidden;shadow=1;labelBackgroundColor=none;" vertex="1" parent="_4mBg54PYkMinI__bZJM-304">
          <mxGeometry x="80" width="70" height="57" as="geometry">
            <mxRectangle width="70" height="57" as="alternateBounds" />
          </mxGeometry>
        </mxCell>
        <mxCell id="_4mBg54PYkMinI__bZJM-307" value="Email" style="shape=partialRectangle;html=1;whiteSpace=wrap;connectable=0;top=0;left=0;bottom=0;right=0;overflow=hidden;shadow=1;labelBackgroundColor=none;" vertex="1" parent="_4mBg54PYkMinI__bZJM-304">
          <mxGeometry x="150" width="145" height="57" as="geometry">
            <mxRectangle width="145" height="57" as="alternateBounds" />
          </mxGeometry>
        </mxCell>
        <mxCell id="_4mBg54PYkMinI__bZJM-316" value="Senha" style="shape=partialRectangle;html=1;whiteSpace=wrap;connectable=0;top=0;left=0;bottom=0;right=0;overflow=hidden;shadow=1;labelBackgroundColor=none;" vertex="1" parent="_4mBg54PYkMinI__bZJM-304">
          <mxGeometry x="295" width="100" height="57" as="geometry">
            <mxRectangle width="100" height="57" as="alternateBounds" />
          </mxGeometry>
        </mxCell>
        <mxCell id="_4mBg54PYkMinI__bZJM-308" value="" style="shape=tableRow;horizontal=0;startSize=0;swimlaneHead=0;swimlaneBody=0;top=0;left=0;bottom=0;right=0;collapsible=0;dropTarget=0;fillColor=none;points=[[0,0.5],[1,0.5]];portConstraint=eastwest;shadow=1;labelBackgroundColor=none;strokeColor=#050505;fontColor=#000000;" vertex="1" parent="_4mBg54PYkMinI__bZJM-303">
          <mxGeometry y="87" width="395" height="56" as="geometry" />
        </mxCell>
        <mxCell id="_4mBg54PYkMinI__bZJM-309" value="1" style="shape=partialRectangle;html=1;whiteSpace=wrap;connectable=0;top=0;left=0;bottom=0;right=0;overflow=hidden;shadow=1;labelBackgroundColor=none;fillColor=#eeeeee;strokeColor=#36393d;fontColor=#252323;" vertex="1" parent="_4mBg54PYkMinI__bZJM-308">
          <mxGeometry width="80" height="56" as="geometry">
            <mxRectangle width="80" height="56" as="alternateBounds" />
          </mxGeometry>
        </mxCell>
        <mxCell id="_4mBg54PYkMinI__bZJM-310" value="1" style="shape=partialRectangle;html=1;whiteSpace=wrap;connectable=0;top=0;left=0;bottom=0;right=0;overflow=hidden;shadow=1;labelBackgroundColor=none;fillColor=#eeeeee;strokeColor=#36393d;fontColor=#252323;" vertex="1" parent="_4mBg54PYkMinI__bZJM-308">
          <mxGeometry x="80" width="70" height="56" as="geometry">
            <mxRectangle width="70" height="56" as="alternateBounds" />
          </mxGeometry>
        </mxCell>
        <mxCell id="_4mBg54PYkMinI__bZJM-311" value="admin@admin.com.br" style="shape=partialRectangle;html=1;whiteSpace=wrap;connectable=0;top=0;left=0;bottom=0;right=0;overflow=hidden;shadow=1;labelBackgroundColor=none;fillColor=#eeeeee;strokeColor=#36393d;fontColor=#252323;" vertex="1" parent="_4mBg54PYkMinI__bZJM-308">
          <mxGeometry x="150" width="145" height="56" as="geometry">
            <mxRectangle width="145" height="56" as="alternateBounds" />
          </mxGeometry>
        </mxCell>
        <mxCell id="_4mBg54PYkMinI__bZJM-317" value="admin" style="shape=partialRectangle;html=1;whiteSpace=wrap;connectable=0;top=0;left=0;bottom=0;right=0;overflow=hidden;shadow=1;labelBackgroundColor=none;fillColor=#eeeeee;strokeColor=#36393d;fontColor=#252323;" vertex="1" parent="_4mBg54PYkMinI__bZJM-308">
          <mxGeometry x="295" width="100" height="56" as="geometry">
            <mxRectangle width="100" height="56" as="alternateBounds" />
          </mxGeometry>
        </mxCell>
        <mxCell id="_4mBg54PYkMinI__bZJM-312" value="" style="shape=tableRow;horizontal=0;startSize=0;swimlaneHead=0;swimlaneBody=0;top=0;left=0;bottom=0;right=0;collapsible=0;dropTarget=0;fillColor=none;points=[[0,0.5],[1,0.5]];portConstraint=eastwest;shadow=1;labelBackgroundColor=none;strokeColor=#050505;fontColor=#000000;" vertex="1" parent="_4mBg54PYkMinI__bZJM-303">
          <mxGeometry y="143" width="395" height="57" as="geometry" />
        </mxCell>
        <mxCell id="_4mBg54PYkMinI__bZJM-313" value="2" style="shape=partialRectangle;html=1;whiteSpace=wrap;connectable=0;top=0;left=0;bottom=0;right=0;overflow=hidden;shadow=1;labelBackgroundColor=none;fillColor=#eeeeee;strokeColor=#36393d;fontColor=#252323;" vertex="1" parent="_4mBg54PYkMinI__bZJM-312">
          <mxGeometry width="80" height="57" as="geometry">
            <mxRectangle width="80" height="57" as="alternateBounds" />
          </mxGeometry>
        </mxCell>
        <mxCell id="_4mBg54PYkMinI__bZJM-314" value="2" style="shape=partialRectangle;html=1;whiteSpace=wrap;connectable=0;top=0;left=0;bottom=0;right=0;overflow=hidden;shadow=1;labelBackgroundColor=none;fillColor=#eeeeee;strokeColor=#36393d;fontColor=#252323;" vertex="1" parent="_4mBg54PYkMinI__bZJM-312">
          <mxGeometry x="80" width="70" height="57" as="geometry">
            <mxRectangle width="70" height="57" as="alternateBounds" />
          </mxGeometry>
        </mxCell>
        <mxCell id="_4mBg54PYkMinI__bZJM-315" value="allan@allan.com.br" style="shape=partialRectangle;html=1;whiteSpace=wrap;connectable=0;top=0;left=0;bottom=0;right=0;overflow=hidden;shadow=1;labelBackgroundColor=none;fillColor=#eeeeee;strokeColor=#36393d;fontColor=#252323;" vertex="1" parent="_4mBg54PYkMinI__bZJM-312">
          <mxGeometry x="150" width="145" height="57" as="geometry">
            <mxRectangle width="145" height="57" as="alternateBounds" />
          </mxGeometry>
        </mxCell>
        <mxCell id="_4mBg54PYkMinI__bZJM-318" value="allan" style="shape=partialRectangle;html=1;whiteSpace=wrap;connectable=0;top=0;left=0;bottom=0;right=0;overflow=hidden;shadow=1;labelBackgroundColor=none;fillColor=#eeeeee;strokeColor=#36393d;fontColor=#252323;" vertex="1" parent="_4mBg54PYkMinI__bZJM-312">
          <mxGeometry x="295" width="100" height="57" as="geometry">
            <mxRectangle width="100" height="57" as="alternateBounds" />
          </mxGeometry>
        </mxCell>
      </root>
    </mxGraphModel>
  </diagram>
</mxfile>
